<?xml version="1.0" encoding="UTF-8"?>
<svg id="Layer_1" xmlns="http://www.w3.org/2000/svg" version="1.1" viewBox="0 0 300 300">
  <!-- Generator: Adobe Illustrator 30.3.0, SVG Export Plug-In . SVG Version: 2.1.3 Build 182)  -->
  <defs>
    <style>
      .st0 {
        fill: #fff;
      }
    </style>
  </defs>
  <path class="st0" d="M219.43,117.7c4.99-3.78,8.26-11.31,12.8-15.34,21-18.67,56.09-4.97,60.08,21.75,6.22,41.62-22.02,57.26-56.59,65.28-7.96,1.85-.91,17.7,1.65,23.77,3.07,7.31,19.42,26.11,4.73,30.36-5.24,1.51-32.09.99-38.92.43-19.07-1.58-15.65-18.94-27.39-30.56-27.39,9.25-60,10.63-86.57-1.68-4.8.92-15.72,26.44-22.75,30.1-5.06,2.63-37.98,3.32-43.62,1.7-4.38-1.26-7.88-7.49-5.97-11.99l21.8-40.49c-6.11-3.67-23.85-1.66-26.44-6.83-7.08-14.15,20.9-15.43,22.79-23.35-5.9-27.01-3.37-53.85,10.81-77.79,28.35-47.86,94.72-71.44,142.79-37.73,11.47,8.04,30.81,33.55,30.81,47.63v24.74ZM183.02,151.21c28.91-28.37,28.84-76.22-9.08-96.29-44.96-23.79-106.72,4.21-121.13,52.19-24.61,81.91,74.08,122.35,136.46,80.19,14.44-9.76,20.46-14.79,21.7-32.86.18-2.68,1.26-11.69-1.75-12.85-23.44,43.57-84.12,63.57-124.35,29.68-53.02-44.65,15.27-130.22,76.58-102.16,59.39,27.19-3.35,112.78-49.33,81.73-36.71-24.79,21.42-73.68,37.22-49.17,8.74,13.56-13.37,26.71-15.23,10.96-3.63-3.35-27.77,14.36-13.54,24.65,21.31,15.41,73.75-27.88,36.34-51.7-39.15-24.93-102.96,36.95-61.14,73.08,25.04,21.64,64.67,14.7,87.25-7.45h0ZM229.87,173.77c20.71.44,43.46-14.12,46.79-35.52,2.29-14.72-6.78-28.53-22.45-28.93-23.24-.59-29.76,47.71-24.34,64.45h0ZM214.3,189.32c-1.67-1.21-20.51,13.36-21.37,15.38-1.53,3.63,5.71,19.47,9.44,21.28l23.88.83-11.95-37.5h0ZM72.76,201.31c-6.47-1.37-9.89-9.3-16.94-8.51l-17.12,35.73,18.41-.35,15.66-26.87h0Z"/>
  <path class="st0" d="M259.92,136.05c-8.5,7.53-18.96-10.97-5.54-11.68,8.81-.46,10.17,7.58,5.54,11.68Z"/>
</svg>