<svg xmlns="http://www.w3.org/2000/svg" viewBox="0 0 400 400">
  <rect width="400" height="400" rx="88" fill="#080808"/>
  <path d="M264.25,176.02c4.71-3.57,7.79-10.66,12.07-14.46,19.8-17.6,52.89-4.69,56.65,20.51,5.86,39.25-20.77,53.99-53.37,61.56-7.5,1.74-.86,16.69,1.55,22.41,2.9,6.89,18.31,24.63,4.46,28.63-4.94,1.43-30.26.94-36.71.4-17.98-1.49-14.75-17.86-25.83-28.81-25.83,8.73-56.58,10.02-81.63-1.58-4.53.87-14.82,24.93-21.45,28.39-4.77,2.48-35.81,3.13-41.13,1.61-4.13-1.19-7.43-7.07-5.63-11.3l20.56-38.18c-5.76-3.46-22.49-1.56-24.93-6.44-6.68-13.35,19.71-14.55,21.49-22.02-5.56-25.47-3.18-50.78,10.2-73.35,26.73-45.13,89.32-67.37,134.65-35.58,10.82,7.58,29.05,31.64,29.05,44.91v23.32ZM229.92,207.62c27.26-26.75,27.2-71.88-8.56-90.81-42.4-22.44-100.63,3.97-114.23,49.22-23.21,77.24,69.86,115.37,128.69,75.62,13.61-9.2,19.29-13.95,20.46-30.99.17-2.53,1.19-11.03-1.65-12.11-22.11,41.08-79.32,59.94-117.27,27.99-50-42.11,14.4-122.8,72.22-96.34,56.01,25.64-3.16,106.35-46.52,77.07-34.61-23.38,20.2-69.48,35.1-46.37,8.25,12.79-12.61,25.18-14.36,10.33-3.42-3.16-26.19,13.54-12.77,23.25,20.1,14.53,69.55-26.29,34.27-48.75-36.92-23.51-97.09,34.85-57.66,68.92,23.61,20.4,60.99,13.86,82.28-7.03ZM274.09,228.89c19.53.41,40.98-13.32,44.12-33.5,2.16-13.88-6.39-26.9-21.17-27.28-21.91-.55-28.06,44.99-22.95,60.78ZM259.41,243.56c-1.57-1.14-19.34,12.6-20.15,14.51-1.45,3.42,5.39,18.36,8.9,20.07l22.52.79-11.27-35.36ZM125.94,254.87c-6.1-1.3-9.33-8.77-15.98-8.03l-16.15,33.69,17.36-.33,14.77-25.34Z" fill="#5a8f4e"/>
  <path d="M229.92,207.62c-21.29,20.89-58.66,27.43-82.28,7.03-39.43-34.07,20.74-92.42,57.66-68.92,35.28,22.46-14.17,63.28-34.27,48.75-13.42-9.7,9.34-26.41,12.77-23.25,1.76,14.85,22.61,2.46,14.36-10.33-14.9-23.11-69.71,22.99-35.1,46.37,43.36,29.28,102.53-51.43,46.52-77.07-57.82-26.47-122.22,54.23-72.22,96.34,37.94,31.95,95.16,13.09,117.27-27.99,2.84,1.09,1.83,9.58,1.65,12.11-1.17,17.05-6.85,21.79-20.46,30.99-58.83,39.75-151.89,1.62-128.69-75.62,13.59-45.25,71.83-71.65,114.23-49.22,35.76,18.93,35.82,64.05,8.56,90.81Z" fill="#080808"/>
  <path d="M274.09,228.89c-5.11-15.78,1.04-61.33,22.95-60.78,14.78.37,23.33,13.4,21.17,27.28-3.14,20.18-24.59,33.91-44.12,33.5ZM302.43,193.33c4.36-3.86,3.09-11.45-5.23-11.01-12.65.66-2.79,18.12,5.23,11.01Z" fill="#080808"/>
  <path d="M259.41,243.56l11.27,35.36-22.52-.79c-3.52-1.71-10.35-16.65-8.9-20.07.81-1.91,18.58-15.65,20.15-14.51Z" fill="#080808"/>
  <path d="M125.94,254.87l-14.77,25.34-17.36.33,16.15-33.69c6.65-.75,9.88,6.73,15.98,8.03Z" fill="#080808"/>
  <path d="M302.43,193.33c-8.02,7.1-17.88-10.35-5.23-11.01,8.31-.44,9.59,7.15,5.23,11.01Z" fill="#5a8f4e"/>
</svg>
