<?xml version="1.0" encoding="UTF-8"?>
<svg id="Layer_1" data-name="Layer 1" xmlns="http://www.w3.org/2000/svg" xmlns:xlink="http://www.w3.org/1999/xlink" viewBox="0 0 935.53 258.67">
  <defs>
    <linearGradient id="linear-gradient" x1="311.64" y1="163.17" x2="920.54" y2="163.17" gradientUnits="userSpaceOnUse">
      <stop offset="0" stop-color="#000"/>
      <stop offset="1" stop-color="#fff"/>
    </linearGradient>
  </defs>
  <g>
    <path d="M203.33,95.29c4.71-3.55,7.79-10.61,12.07-14.39,19.8-17.51,52.89-4.66,56.65,20.4,5.86,39.04-20.77,53.7-53.37,61.23-7.5,1.73-.86,16.6,1.55,22.29,2.9,6.85,18.31,24.49,4.46,28.47-4.94,1.42-30.26.93-36.71.4-17.98-1.49-14.75-17.76-25.83-28.66-25.83,8.68-56.58,9.97-81.63-1.57-4.53.87-14.82,24.8-21.45,28.23-4.77,2.47-35.81,3.12-41.13,1.6-4.13-1.18-7.43-7.03-5.63-11.24l20.56-37.98c-5.76-3.44-22.49-1.55-24.93-6.41-6.68-13.27,19.71-14.47,21.49-21.9-5.56-25.33-3.18-50.51,10.2-72.96C66.36,17.93,128.94-4.19,174.27,27.43c10.82,7.54,29.05,31.47,29.05,44.67v23.19ZM168.99,126.71c27.26-26.61,27.2-71.49-8.56-90.31-42.4-22.32-100.63,3.95-114.23,48.95-23.21,76.83,69.86,114.75,128.69,75.21,13.61-9.15,19.29-13.87,20.46-30.82.17-2.52,1.19-10.97-1.65-12.05-22.11,40.86-79.32,59.62-117.27,27.84-50-41.88,14.4-122.14,72.22-95.81,56.01,25.5-3.16,105.78-46.52,76.65-34.61-23.25,20.2-69.1,35.1-46.12,8.25,12.72-12.61,25.05-14.36,10.28-3.42-3.14-26.19,13.47-12.77,23.12,20.1,14.45,69.55-26.15,34.27-48.49-36.92-23.38-97.09,34.66-57.66,68.54,23.61,20.29,60.99,13.79,82.28-6.99ZM213.17,147.87c19.53.41,40.98-13.25,44.12-33.32,2.16-13.81-6.39-26.76-21.17-27.13-21.91-.55-28.06,44.75-22.95,60.45ZM198.48,162.46c-1.57-1.13-19.34,12.53-20.15,14.43-1.45,3.4,5.39,18.26,8.9,19.96l22.52.78-11.27-35.17ZM65.01,173.7c-6.1-1.29-9.33-8.73-15.98-7.98l-16.15,33.51,17.36-.32,14.77-25.2Z" fill="#fff"/>
    <path d="M241.51,112.5c-8.02,7.07-17.88-10.29-5.23-10.95,8.31-.43,9.59,7.11,5.23,10.95Z" fill="#fff"/>
  </g>
  <g>
    <g>
      <path d="M375.85,115.94v23.84h-64.21v-23.84h64.21ZM326.81,90.47h30.35v90.06c0,2.94.6,4.99,1.8,6.16,1.2,1.17,3.41,1.75,6.62,1.75,1.4,0,3.19-.01,5.35-.04,2.16-.03,3.71-.07,4.65-.14l.88,23.66c-1.99.24-4.59.4-7.81.5-3.22.09-6.46.13-9.74.13-10.94,0-19.02-2.23-24.26-6.7-5.23-4.47-7.85-11.35-7.85-20.65v-94.74Z" fill="url(#linear-gradient)"/>
      <path d="M432.7,214.27c-9.83,0-18.41-2.07-25.75-6.21-7.34-4.14-13.03-9.96-17.06-17.45-4.04-7.5-6.05-16.31-6.05-26.45s2.02-18.86,6.05-26.36c4.04-7.5,9.72-13.35,17.06-17.54,7.34-4.2,15.92-6.3,25.75-6.3s18.39,2.1,25.7,6.3c7.31,4.2,12.98,10.05,17.02,17.54,4.04,7.5,6.05,16.28,6.05,26.36s-2.02,18.95-6.05,26.45c-4.04,7.5-9.71,13.32-17.02,17.45-7.31,4.14-15.88,6.21-25.7,6.21ZM432.7,189.8c3.57,0,6.71-1.02,9.43-3.06,2.72-2.04,4.84-4.98,6.36-8.82,1.52-3.84,2.28-8.43,2.28-13.77s-.76-10.08-2.28-13.86c-1.52-3.78-3.64-6.69-6.36-8.73-2.72-2.04-5.86-3.06-9.43-3.06s-6.81,1-9.56,3.01c-2.75,2.01-4.87,4.92-6.36,8.73-1.49,3.81-2.24,8.44-2.24,13.9s.75,10,2.24,13.81c1.49,3.81,3.61,6.73,6.36,8.77,2.75,2.04,5.94,3.06,9.56,3.06Z" fill="url(#linear-gradient)"/>
      <path d="M495.24,212.21V78.15h30.35v134.06h-30.35ZM522.53,187.1v-36.8h3.6l28.16-34.37h34.83l-40.79,49.57h-7.9l-17.9,21.59ZM555.6,212.21l-25.88-39.86,19.83-21.77,41.06,61.63h-35Z" fill="url(#linear-gradient)"/>
      <path d="M613.32,106.13c-4.74,0-8.67-1.47-11.8-4.41-3.13-2.94-4.69-6.66-4.69-11.16s1.56-8.13,4.69-11.07c3.13-2.94,7.03-4.41,11.71-4.41s8.74,1.47,11.84,4.41c3.1,2.94,4.65,6.66,4.65,11.16s-1.55,8.13-4.65,11.07c-3.1,2.94-7.02,4.41-11.75,4.41ZM598.23,212.21v-96.27h30.35v96.27h-30.35Z" fill="url(#linear-gradient)"/>
      <path d="M705.52,214.27c-12.58,0-23.58-2.83-33.03-8.5-9.45-5.67-16.8-13.68-22.06-24.02-5.26-10.35-7.9-22.51-7.9-36.48s2.75-27.04,8.25-37.38c5.5-10.35,12.98-18.23,22.46-23.66,9.47-5.43,20.09-8.14,31.84-8.14,7.66,0,14.85,1.12,21.58,3.37,6.72,2.25,12.69,5.47,17.9,9.67,5.21,4.2,9.44,9.18,12.72,14.94,3.27,5.76,5.26,12.18,5.96,19.25h-31.84c-.64-2.94-1.67-5.59-3.07-7.96-1.4-2.37-3.19-4.38-5.35-6.03-2.16-1.65-4.65-2.91-7.46-3.78-2.81-.87-5.96-1.3-9.47-1.3-6.67,0-12.37,1.62-17.11,4.86-4.74,3.24-8.36,7.9-10.88,13.99-2.52,6.09-3.77,13.45-3.77,22.09s1.26,16,3.77,22.09c2.51,6.09,6.17,10.75,10.96,13.99,4.79,3.24,10.58,4.86,17.37,4.86,5.67,0,10.54-.99,14.61-2.97,4.06-1.98,7.19-4.77,9.39-8.37,2.19-3.6,3.29-7.8,3.29-12.6l6.75.72h-32.9v-23.66h56.76v17.99c0,11.52-2.49,21.55-7.46,30.1-4.97,8.55-11.87,15.18-20.7,19.88-8.83,4.71-19.04,7.06-30.62,7.06Z" fill="url(#linear-gradient)"/>
      <path d="M794.39,106.13c-4.74,0-8.67-1.47-11.8-4.41-3.13-2.94-4.69-6.66-4.69-11.16s1.56-8.13,4.69-11.07c3.13-2.94,7.03-4.41,11.71-4.41s8.74,1.47,11.84,4.41c3.1,2.94,4.65,6.66,4.65,11.16s-1.55,8.13-4.65,11.07c-3.1,2.94-7.02,4.41-11.75,4.41ZM779.3,212.21v-96.27h30.35v96.27h-30.35Z" fill="url(#linear-gradient)"/>
      <path d="M872.82,251.25c-9.3,0-17.12-1.3-23.47-3.91-6.35-2.61-11.29-6.19-14.83-10.75-3.54-4.56-5.8-9.81-6.8-15.75l28.33-1.17c.53,1.92,1.54,3.6,3.03,5.04,1.49,1.44,3.38,2.56,5.66,3.37,2.28.81,4.94,1.21,7.98,1.21,5.79,0,10.19-1.56,13.2-4.68,3.01-3.12,4.52-7.8,4.52-14.04v-15.29h-.53c-1.52,3.54-3.57,6.51-6.14,8.91-2.57,2.4-5.57,4.2-8.99,5.4-3.42,1.2-7.27,1.8-11.54,1.8-7.84,0-14.75-1.98-20.75-5.94-6-3.96-10.67-9.54-14.04-16.73-3.36-7.2-5.04-15.66-5.04-25.37s1.71-18.62,5.13-26c3.42-7.38,8.13-13.1,14.12-17.18,5.99-4.08,12.79-6.12,20.4-6.12,4.27,0,8.11.66,11.54,1.98,3.42,1.32,6.43,3.18,9.04,5.58,2.6,2.4,4.78,5.25,6.54,8.55h.26v-14.22h30.09v91.77c0,10.02-1.96,18.25-5.88,24.7-3.92,6.45-9.45,11.2-16.58,14.26-7.14,3.06-15.56,4.59-25.27,4.59ZM872.2,187.46c3.86,0,7.21-1,10.04-3.01,2.84-2.01,5.04-4.86,6.62-8.55,1.58-3.69,2.37-8.02,2.37-13s-.79-9.4-2.37-13.09c-1.58-3.69-3.79-6.54-6.62-8.55-2.84-2.01-6.18-3.01-10.04-3.01s-6.96.99-9.65,2.97c-2.69,1.98-4.77,4.81-6.23,8.5-1.46,3.69-2.19,8.08-2.19,13.18s.73,9.48,2.19,13.14c1.46,3.66,3.54,6.48,6.23,8.46,2.69,1.98,5.91,2.97,9.65,2.97Z" fill="url(#linear-gradient)"/>
    </g>
    <g>
      <path d="M375.85,115.94v23.84h-64.21v-23.84h64.21ZM326.81,90.47h30.35v90.06c0,2.94.6,4.99,1.8,6.16,1.2,1.17,3.41,1.75,6.62,1.75,1.4,0,3.19-.01,5.35-.04,2.16-.03,3.71-.07,4.65-.14l.88,23.66c-1.99.24-4.59.4-7.81.5-3.22.09-6.46.13-9.74.13-10.94,0-19.02-2.23-24.26-6.7-5.23-4.47-7.85-11.35-7.85-20.65v-94.74Z" fill="#fff"/>
      <path d="M432.7,214.27c-9.83,0-18.41-2.07-25.75-6.21-7.34-4.14-13.03-9.96-17.06-17.45-4.04-7.5-6.05-16.31-6.05-26.45s2.02-18.86,6.05-26.36c4.04-7.5,9.72-13.35,17.06-17.54,7.34-4.2,15.92-6.3,25.75-6.3s18.39,2.1,25.7,6.3c7.31,4.2,12.98,10.05,17.02,17.54,4.04,7.5,6.05,16.28,6.05,26.36s-2.02,18.95-6.05,26.45c-4.04,7.5-9.71,13.32-17.02,17.45-7.31,4.14-15.88,6.21-25.7,6.21ZM432.7,189.8c3.57,0,6.71-1.02,9.43-3.06,2.72-2.04,4.84-4.98,6.36-8.82,1.52-3.84,2.28-8.43,2.28-13.77s-.76-10.08-2.28-13.86c-1.52-3.78-3.64-6.69-6.36-8.73-2.72-2.04-5.86-3.06-9.43-3.06s-6.81,1-9.56,3.01c-2.75,2.01-4.87,4.92-6.36,8.73-1.49,3.81-2.24,8.44-2.24,13.9s.75,10,2.24,13.81c1.49,3.81,3.61,6.73,6.36,8.77,2.75,2.04,5.94,3.06,9.56,3.06Z" fill="#fff"/>
      <path d="M495.24,212.21V78.15h30.35v134.06h-30.35ZM522.53,187.1v-36.8h3.6l28.16-34.37h34.83l-40.79,49.57h-7.9l-17.9,21.59ZM555.6,212.21l-25.88-39.86,19.83-21.77,41.06,61.63h-35Z" fill="#fff"/>
      <path d="M613.32,106.13c-4.74,0-8.67-1.47-11.8-4.41-3.13-2.94-4.69-6.66-4.69-11.16s1.56-8.13,4.69-11.07c3.13-2.94,7.03-4.41,11.71-4.41s8.74,1.47,11.84,4.41c3.1,2.94,4.65,6.66,4.65,11.16s-1.55,8.13-4.65,11.07c-3.1,2.94-7.02,4.41-11.75,4.41ZM598.23,212.21v-96.27h30.35v96.27h-30.35Z" fill="#fff"/>
      <path d="M705.52,214.27c-12.58,0-23.58-2.83-33.03-8.5-9.45-5.67-16.8-13.68-22.06-24.02-5.26-10.35-7.9-22.51-7.9-36.48s2.75-27.04,8.25-37.38c5.5-10.35,12.98-18.23,22.46-23.66,9.47-5.43,20.09-8.14,31.84-8.14,7.66,0,14.85,1.12,21.58,3.37,6.72,2.25,12.69,5.47,17.9,9.67,5.21,4.2,9.44,9.18,12.72,14.94,3.27,5.76,5.26,12.18,5.96,19.25h-31.84c-.64-2.94-1.67-5.59-3.07-7.96-1.4-2.37-3.19-4.38-5.35-6.03-2.16-1.65-4.65-2.91-7.46-3.78-2.81-.87-5.96-1.3-9.47-1.3-6.67,0-12.37,1.62-17.11,4.86-4.74,3.24-8.36,7.9-10.88,13.99-2.52,6.09-3.77,13.45-3.77,22.09s1.26,16,3.77,22.09c2.51,6.09,6.17,10.75,10.96,13.99,4.79,3.24,10.58,4.86,17.37,4.86,5.67,0,10.54-.99,14.61-2.97,4.06-1.98,7.19-4.77,9.39-8.37,2.19-3.6,3.29-7.8,3.29-12.6l6.75.72h-32.9v-23.66h56.76v17.99c0,11.52-2.49,21.55-7.46,30.1-4.97,8.55-11.87,15.18-20.7,19.88-8.83,4.71-19.04,7.06-30.62,7.06Z" fill="#5a8f4e"/>
      <path d="M794.39,106.13c-4.74,0-8.67-1.47-11.8-4.41-3.13-2.94-4.69-6.66-4.69-11.16s1.56-8.13,4.69-11.07c3.13-2.94,7.03-4.41,11.71-4.41s8.74,1.47,11.84,4.41c3.1,2.94,4.65,6.66,4.65,11.16s-1.55,8.13-4.65,11.07c-3.1,2.94-7.02,4.41-11.75,4.41ZM779.3,212.21v-96.27h30.35v96.27h-30.35Z" fill="#5a8f4e"/>
      <path d="M872.82,251.25c-9.3,0-17.12-1.3-23.47-3.91-6.35-2.61-11.29-6.19-14.83-10.75-3.54-4.56-5.8-9.81-6.8-15.75l28.33-1.17c.53,1.92,1.54,3.6,3.03,5.04,1.49,1.44,3.38,2.56,5.66,3.37,2.28.81,4.94,1.21,7.98,1.21,5.79,0,10.19-1.56,13.2-4.68,3.01-3.12,4.52-7.8,4.52-14.04v-15.29h-.53c-1.52,3.54-3.57,6.51-6.14,8.91-2.57,2.4-5.57,4.2-8.99,5.4-3.42,1.2-7.27,1.8-11.54,1.8-7.84,0-14.75-1.98-20.75-5.94-6-3.96-10.67-9.54-14.04-16.73-3.36-7.2-5.04-15.66-5.04-25.37s1.71-18.62,5.13-26c3.42-7.38,8.13-13.1,14.12-17.18,5.99-4.08,12.79-6.12,20.4-6.12,4.27,0,8.11.66,11.54,1.98,3.42,1.32,6.43,3.18,9.04,5.58,2.6,2.4,4.78,5.25,6.54,8.55h.26v-14.22h30.09v91.77c0,10.02-1.96,18.25-5.88,24.7-3.92,6.45-9.45,11.2-16.58,14.26-7.14,3.06-15.56,4.59-25.27,4.59ZM872.2,187.46c3.86,0,7.21-1,10.04-3.01,2.84-2.01,5.04-4.86,6.62-8.55,1.58-3.69,2.37-8.02,2.37-13s-.79-9.4-2.37-13.09c-1.58-3.69-3.79-6.54-6.62-8.55-2.84-2.01-6.18-3.01-10.04-3.01s-6.96.99-9.65,2.97c-2.69,1.98-4.77,4.81-6.23,8.5-1.46,3.69-2.19,8.08-2.19,13.18s.73,9.48,2.19,13.14c1.46,3.66,3.54,6.48,6.23,8.46,2.69,1.98,5.91,2.97,9.65,2.97Z" fill="#5a8f4e"/>
    </g>
  </g>
</svg>